<?xml version="1.0" standalone="no"?>
<!DOCTYPE svg PUBLIC "-//W3C//DTD SVG 20010904//EN"
 "http://www.w3.org/TR/2001/REC-SVG-20010904/DTD/svg10.dtd">
<svg version="1.0" xmlns="http://www.w3.org/2000/svg"
 width="100.000000pt" height="100.000000pt" viewBox="0 0 100.000000 100.000000"
 preserveAspectRatio="xMidYMid meet">

<g transform="translate(0.000000,100.000000) scale(0.100000,-0.100000)"
fill="#000000" stroke="none">
<path d="M415 583 l-59 -64 82 -82 82 -82 60 60 c49 49 60 65 60 93 0 49 -33
107 -74 126 -60 29 -85 20 -151 -51z m149 42 c34 -16 66 -69 66 -108 0 -18
-12 -9 -72 48 l-73 70 75 -78 75 -77 -58 -57 -57 -58 -78 78 -77 78 62 59 c65
64 84 70 137 45z"/>
<path d="M420 505 c0 -20 4 -26 18 -23 9 2 17 12 17 23 0 11 -8 21 -17 23 -14
3 -18 -3 -18 -23z"/>
<path d="M470 505 c0 -23 3 -27 10 -15 9 13 11 13 20 0 7 -12 10 -8 10 15 0
23 -3 27 -10 15 -9 -13 -11 -13 -20 0 -7 12 -10 8 -10 -15z"/>
<path d="M521 505 c0 -23 2 -26 8 -12 4 10 11 18 16 18 5 0 12 -8 16 -18 6
-14 8 -12 8 11 1 22 -2 26 -12 17 -10 -8 -17 -7 -25 1 -9 9 -12 5 -11 -17z"/>
</g>
</svg>
